<svg width="64" height="64" viewBox="0 0 36 36" fill="none" xmlns="http://www.w3.org/2000/svg">
  <mask id="favicon-mask" style="mask-type:alpha" maskUnits="userSpaceOnUse" x="0" y="0" width="36" height="36">
    <path fill-rule="evenodd" clip-rule="evenodd" d="M13.3714 3.95191L12.8647 3.16134C12.8512 3.14359 12.8378 3.12622 12.8243 3.10903L12.8114 3.09296L12.7828 3.05783L12.7688 3.0412L12.741 3.00869L12.7234 2.98869L12.7014 2.96422L12.6804 2.94142L12.6548 2.91451L12.6401 2.899L12.638 2.89695L12.5986 2.85752L12.5969 2.85584L12.5806 2.84033L12.5493 2.81062L12.5394 2.80147L12.5016 2.76746L12.4932 2.76017L12.4545 2.72729L12.445 2.71944C12.3972 2.68001 12.3486 2.64302 12.2991 2.60845L12.2951 2.60565C11.4106 1.98848 10.2706 2.11423 9.2456 2.46794C8.86163 2.60042 8.49354 2.76466 8.16002 2.93432L8.13853 2.94516L8.1077 2.96104L8.09462 2.96777L8.05576 2.98795L8.05108 2.99038L8.00792 3.01298L8.00456 3.01485L7.96532 3.03578L7.92309 3.05858L7.90403 3.06885L7.88124 3.08137L7.87881 3.08268C7.56136 3.25645 7.28501 3.42836 7.0692 3.57092C6.93598 3.65912 6.80929 3.74862 6.68242 3.8441C6.55313 3.94126 6.4214 4.04609 6.2807 4.16324C4.32366 5.81576 2.73003 7.88533 1.63791 10.2346C0.58689 12.4957 0 15.0169 0 17.6756C0 21.0802 0.962081 24.2593 2.62914 26.9558C4.16166 29.4349 6.28986 31.5069 8.81361 32.9724L8.81324 32.972C8.76634 32.924 8.72075 32.8762 8.6759 32.8284L8.67086 32.8231C8.62732 32.7764 8.58491 32.7299 8.54361 32.6834L8.53502 32.6736C8.49335 32.6269 8.45299 32.58 8.4132 32.5335L8.41039 32.5303C8.36966 32.4823 8.32986 32.4343 8.29118 32.3865C6.37132 30.0101 6.9853 27.8813 7.27791 27.1755L7.27828 27.175L7.29416 27.1374L7.29641 27.1324L7.30911 27.1034L7.3136 27.0933C7.32387 27.0703 7.3334 27.05 7.342 27.0317L7.34891 27.0171L7.35489 27.0049L7.36199 26.9907L7.36629 26.9823L7.37302 26.9691L7.37582 26.9636L7.38198 26.9521L7.38366 26.9489L7.38871 26.9395L7.38946 26.9382L7.39301 26.9319L7.3945 26.9289L7.39674 26.9255L17.2814 10.0534L13.3718 3.95247L13.3714 3.95191ZM34.0061 24.4486C32.4627 26.2157 29.7912 26.1368 29.6726 26.1325L18.1464 25.8993H17.3696C15.9092 25.8648 14.5896 25.2586 13.6272 24.296C12.6356 23.3043 12.0223 21.9343 12.0223 20.4212C12.0223 20.0684 12.098 19.6592 12.232 19.2099L7.63329 27.0593L7.6318 27.0621L7.62787 27.0694L7.62152 27.0812L7.61311 27.0974L7.60284 27.1178L7.59069 27.1425L7.57705 27.1714L7.56211 27.2045L7.54566 27.2415L7.52828 27.2826L7.50997 27.3276L7.49092 27.3764L7.49073 27.377L7.4713 27.4291L7.47111 27.4298L7.4513 27.4855L7.45093 27.4863L7.43094 27.5455L7.43056 27.5464C7.41038 27.6079 7.39021 27.675 7.37077 27.7467L7.3704 27.748L7.35134 27.8207L7.35097 27.822C7.33845 27.8721 7.3263 27.9242 7.31472 27.9782L7.31434 27.9799C7.30295 28.0341 7.29211 28.0902 7.28221 28.1485L7.28183 28.1503C7.27698 28.1791 7.2723 28.2083 7.26782 28.2382C7.08658 29.4534 7.31173 31.4544 9.79195 33.4993C10.9932 34.0989 12.2733 34.5665 13.6126 34.8819C14.9166 35.1889 16.2771 35.3516 17.6762 35.3516C21.6185 35.3516 25.2588 34.0612 28.198 31.8801C30.7486 29.9871 32.7718 27.4227 34.0065 24.4482L34.0061 24.4486ZM12.3779 2.33004L12.3826 2.33322C12.4297 2.36405 12.4762 2.39675 12.522 2.43131L12.5683 2.46719L12.6014 2.4941L12.6171 2.5068L12.6431 2.52885L12.6703 2.55239L12.6929 2.57239L12.7156 2.59275L12.7441 2.61929L12.7658 2.64003L12.7897 2.6632C12.8054 2.67871 12.8209 2.6944 12.8366 2.71028C12.8527 2.72691 12.8691 2.7441 12.885 2.76148L12.8959 2.77344L12.9351 2.81716L12.9424 2.82557L12.9801 2.86986L12.9938 2.8863C13.0055 2.90031 13.0169 2.9147 13.0285 2.92909L13.0392 2.94254C13.0532 2.96029 13.067 2.97823 13.0808 2.99635L13.084 3.00065L13.087 3.00458L13.093 3.01261C14.5637 5.00763 16.0964 7.6839 17.4783 9.85493L17.5017 9.81607C18.975 12.2717 20.4271 14.7882 21.9417 17.2115C22.2734 17.6694 22.5359 18.1799 22.7138 18.7274C22.8874 19.2614 22.9812 19.8309 22.9812 20.4216C22.9812 21.9327 22.3692 23.301 21.3795 24.2924C20.7287 24.9443 19.9144 25.433 19.0034 25.6921C22.4735 25.8067 26.28 25.7241 29.6808 25.7241C29.692 25.7248 33.6048 26.0262 34.5837 22.8408L34.598 22.794L34.5986 22.7937V22.7925C34.846 21.9734 35.0358 21.1296 35.1627 20.2665C35.287 19.4219 35.3516 18.557 35.3516 17.6762C35.3516 12.795 33.3731 8.37582 30.1744 5.17729C26.9758 1.97857 22.5566 0 17.6758 0C15.6192 0 13.6453 0.351094 11.8112 0.996293C10.8441 1.33655 9.91545 1.75846 9.03353 2.25399L9.15704 2.21008C10.2299 1.83993 11.4239 1.70726 12.3779 2.33004Z" fill="#0F172A"/>
  </mask>
  <g mask="url(#favicon-mask)">
    <rect x="-8.43" y="-6.99" width="48.18" height="50.59" fill="#0F172A"/>
  </g>
</svg>
